<?xml version="1.0" encoding="UTF-8"?>
<svg xmlns="http://www.w3.org/2000/svg" xmlns:xlink="http://www.w3.org/1999/xlink" width="1920" height="1080" viewBox="0 0 1920 1080">
<defs>
<g>
<g id="glyph-0-0">
<path d="M 2.601562 -1.925781 C 2.484375 -1.71875 2.34375 -1.5625 2.183594 -1.457031 C 2.019531 -1.351562 1.855469 -1.300781 1.683594 -1.300781 C 1.527344 -1.300781 1.375 -1.34375 1.226562 -1.433594 C 1.082031 -1.527344 0.964844 -1.65625 0.875 -1.832031 C 0.789062 -2.007812 0.746094 -2.191406 0.746094 -2.382812 C 0.746094 -2.660156 0.832031 -2.914062 1.003906 -3.144531 C 1.179688 -3.371094 1.410156 -3.484375 1.699219 -3.484375 C 1.90625 -3.484375 2.09375 -3.421875 2.261719 -3.292969 C 2.433594 -3.164062 2.566406 -2.980469 2.660156 -2.734375 C 2.78125 -2.421875 2.839844 -2.058594 2.839844 -1.644531 C 2.839844 -1.320312 2.789062 -1.054688 2.6875 -0.839844 C 2.617188 -0.695312 2.515625 -0.554688 2.382812 -0.421875 C 2.25 -0.285156 2.101562 -0.175781 1.933594 -0.0898438 C 1.707031 0.0234375 1.46875 0.0820312 1.222656 0.0820312 C 1.0625 0.0820312 0.929688 0.0507812 0.824219 -0.0117188 C 0.777344 -0.0390625 0.753906 -0.0742188 0.753906 -0.121094 C 0.753906 -0.148438 0.765625 -0.175781 0.785156 -0.195312 C 0.808594 -0.21875 0.835938 -0.226562 0.867188 -0.226562 C 0.886719 -0.226562 0.917969 -0.21875 0.960938 -0.199219 C 1.03125 -0.164062 1.113281 -0.148438 1.203125 -0.148438 C 1.589844 -0.148438 1.921875 -0.285156 2.199219 -0.5625 C 2.472656 -0.839844 2.613281 -1.1875 2.613281 -1.605469 C 2.613281 -1.683594 2.609375 -1.789062 2.601562 -1.925781 M 2.558594 -2.304688 C 2.460938 -2.671875 2.34375 -2.921875 2.203125 -3.054688 C 2.058594 -3.1875 1.894531 -3.253906 1.703125 -3.253906 C 1.511719 -3.253906 1.339844 -3.175781 1.195312 -3.011719 C 1.046875 -2.847656 0.972656 -2.640625 0.972656 -2.382812 C 0.972656 -2.136719 1.046875 -1.933594 1.195312 -1.769531 C 1.339844 -1.609375 1.503906 -1.527344 1.691406 -1.527344 C 1.796875 -1.527344 1.902344 -1.554688 2.007812 -1.613281 C 2.109375 -1.671875 2.207031 -1.757812 2.300781 -1.875 C 2.359375 -1.953125 2.445312 -2.097656 2.558594 -2.304688 Z "/>
</g>
<g id="glyph-0-1">
<path d="M 2.136719 -1.765625 C 2.324219 -1.675781 2.46875 -1.550781 2.566406 -1.402344 C 2.660156 -1.25 2.710938 -1.085938 2.710938 -0.914062 C 2.710938 -0.644531 2.609375 -0.410156 2.40625 -0.214844 C 2.203125 -0.015625 1.957031 0.0820312 1.667969 0.0820312 C 1.378906 0.0820312 1.132812 -0.015625 0.929688 -0.214844 C 0.726562 -0.410156 0.625 -0.644531 0.625 -0.914062 C 0.625 -1.085938 0.675781 -1.246094 0.773438 -1.398438 C 0.867188 -1.550781 1.011719 -1.671875 1.203125 -1.765625 C 1.039062 -1.863281 0.917969 -1.960938 0.839844 -2.066406 C 0.734375 -2.210938 0.683594 -2.371094 0.683594 -2.550781 C 0.683594 -2.800781 0.78125 -3.019531 0.972656 -3.207031 C 1.164062 -3.390625 1.398438 -3.484375 1.667969 -3.484375 C 1.941406 -3.484375 2.175781 -3.390625 2.367188 -3.207031 C 2.558594 -3.019531 2.652344 -2.800781 2.652344 -2.550781 C 2.652344 -2.371094 2.601562 -2.210938 2.496094 -2.066406 C 2.421875 -1.960938 2.300781 -1.863281 2.136719 -1.765625 M 2.417969 -2.542969 C 2.417969 -2.738281 2.347656 -2.90625 2.203125 -3.046875 C 2.054688 -3.183594 1.878906 -3.253906 1.664062 -3.253906 C 1.457031 -3.253906 1.277344 -3.183594 1.132812 -3.042969 C 0.988281 -2.902344 0.914062 -2.738281 0.914062 -2.542969 C 0.914062 -2.367188 0.984375 -2.210938 1.128906 -2.078125 C 1.273438 -1.945312 1.453125 -1.878906 1.664062 -1.878906 C 1.882812 -1.878906 2.058594 -1.945312 2.203125 -2.078125 C 2.347656 -2.210938 2.417969 -2.367188 2.417969 -2.542969 M 2.480469 -0.910156 C 2.480469 -1.109375 2.40625 -1.285156 2.25 -1.433594 C 2.09375 -1.582031 1.898438 -1.65625 1.667969 -1.65625 C 1.4375 -1.65625 1.242188 -1.582031 1.085938 -1.433594 C 0.933594 -1.285156 0.855469 -1.109375 0.855469 -0.910156 C 0.855469 -0.707031 0.933594 -0.527344 1.089844 -0.375 C 1.246094 -0.222656 1.4375 -0.148438 1.667969 -0.148438 C 1.898438 -0.148438 2.089844 -0.222656 2.246094 -0.375 C 2.402344 -0.527344 2.480469 -0.703125 2.480469 -0.910156 Z "/>
</g>
<g id="glyph-0-2">
<path d="M 2.617188 -2.117188 L 2.617188 -2.195312 C 2.617188 -2.25 2.628906 -2.289062 2.652344 -2.3125 C 2.671875 -2.335938 2.699219 -2.347656 2.730469 -2.347656 C 2.765625 -2.347656 2.792969 -2.335938 2.816406 -2.3125 C 2.835938 -2.289062 2.847656 -2.25 2.847656 -2.195312 L 2.847656 -1.679688 C 2.847656 -1.625 2.835938 -1.582031 2.816406 -1.558594 C 2.792969 -1.535156 2.765625 -1.523438 2.730469 -1.523438 C 2.699219 -1.523438 2.675781 -1.535156 2.65625 -1.554688 C 2.632812 -1.578125 2.621094 -1.613281 2.617188 -1.660156 C 2.605469 -1.789062 2.523438 -1.910156 2.363281 -2.027344 C 2.207031 -2.140625 1.992188 -2.199219 1.726562 -2.199219 C 1.386719 -2.199219 1.128906 -2.09375 0.953125 -1.882812 C 0.78125 -1.671875 0.691406 -1.429688 0.691406 -1.15625 C 0.691406 -0.859375 0.789062 -0.617188 0.980469 -0.425781 C 1.175781 -0.234375 1.425781 -0.136719 1.734375 -0.136719 C 1.910156 -0.136719 2.089844 -0.171875 2.273438 -0.234375 C 2.457031 -0.300781 2.625 -0.40625 2.773438 -0.550781 C 2.8125 -0.585938 2.84375 -0.605469 2.871094 -0.605469 C 2.902344 -0.605469 2.929688 -0.59375 2.949219 -0.574219 C 2.972656 -0.554688 2.980469 -0.527344 2.980469 -0.496094 C 2.980469 -0.417969 2.890625 -0.320312 2.707031 -0.199219 C 2.414062 -0.0078125 2.085938 0.0898438 1.722656 0.0898438 C 1.355469 0.0898438 1.054688 -0.0273438 0.816406 -0.261719 C 0.582031 -0.496094 0.464844 -0.792969 0.464844 -1.152344 C 0.464844 -1.519531 0.585938 -1.824219 0.824219 -2.066406 C 1.066406 -2.308594 1.371094 -2.429688 1.738281 -2.429688 C 2.089844 -2.429688 2.382812 -2.328125 2.617188 -2.117188 Z "/>
</g>
<g id="glyph-0-3">
<path d="M 2.136719 -1.851562 C 2.34375 -1.757812 2.503906 -1.628906 2.613281 -1.464844 C 2.726562 -1.300781 2.78125 -1.132812 2.78125 -0.953125 C 2.78125 -0.683594 2.671875 -0.441406 2.449219 -0.230469 C 2.226562 -0.0234375 1.949219 0.0820312 1.617188 0.0820312 C 1.421875 0.0820312 1.21875 0.0390625 1.007812 -0.0429688 C 0.800781 -0.125 0.652344 -0.210938 0.570312 -0.296875 C 0.542969 -0.328125 0.527344 -0.359375 0.527344 -0.390625 C 0.527344 -0.417969 0.539062 -0.445312 0.558594 -0.464844 C 0.582031 -0.488281 0.605469 -0.5 0.636719 -0.5 C 0.664062 -0.5 0.695312 -0.484375 0.734375 -0.457031 C 1.011719 -0.25 1.308594 -0.148438 1.621094 -0.148438 C 1.886719 -0.148438 2.109375 -0.230469 2.285156 -0.394531 C 2.464844 -0.558594 2.554688 -0.746094 2.554688 -0.945312 C 2.554688 -1.082031 2.507812 -1.214844 2.421875 -1.34375 C 2.332031 -1.476562 2.207031 -1.578125 2.042969 -1.652344 C 1.878906 -1.730469 1.710938 -1.765625 1.542969 -1.765625 C 1.488281 -1.765625 1.449219 -1.777344 1.425781 -1.796875 C 1.402344 -1.816406 1.390625 -1.84375 1.390625 -1.878906 C 1.390625 -1.914062 1.402344 -1.941406 1.425781 -1.960938 C 1.449219 -1.984375 1.480469 -1.992188 1.527344 -1.992188 L 1.722656 -1.992188 C 1.925781 -1.992188 2.097656 -2.054688 2.230469 -2.179688 C 2.363281 -2.304688 2.429688 -2.449219 2.429688 -2.613281 C 2.429688 -2.78125 2.359375 -2.933594 2.21875 -3.0625 C 2.078125 -3.191406 1.898438 -3.257812 1.675781 -3.257812 C 1.515625 -3.257812 1.371094 -3.230469 1.238281 -3.175781 C 1.109375 -3.121094 1.003906 -3.046875 0.921875 -2.953125 C 0.894531 -2.917969 0.871094 -2.894531 0.855469 -2.886719 C 0.839844 -2.878906 0.824219 -2.875 0.804688 -2.875 C 0.773438 -2.875 0.746094 -2.886719 0.722656 -2.90625 C 0.703125 -2.925781 0.691406 -2.953125 0.691406 -2.980469 C 0.691406 -3.054688 0.769531 -3.144531 0.929688 -3.253906 C 1.148438 -3.410156 1.394531 -3.484375 1.675781 -3.484375 C 1.960938 -3.484375 2.199219 -3.398438 2.382812 -3.226562 C 2.566406 -3.054688 2.660156 -2.847656 2.660156 -2.609375 C 2.660156 -2.457031 2.613281 -2.3125 2.527344 -2.179688 C 2.4375 -2.042969 2.308594 -1.933594 2.136719 -1.851562 Z "/>
</g>
<g id="glyph-0-4">
<path d="M 2.433594 -3.070312 L 2.433594 -3.175781 L 0.800781 -3.175781 L 0.800781 -2.972656 C 0.800781 -2.917969 0.789062 -2.878906 0.769531 -2.855469 C 0.75 -2.832031 0.722656 -2.820312 0.6875 -2.820312 C 0.652344 -2.820312 0.625 -2.832031 0.605469 -2.855469 C 0.582031 -2.878906 0.574219 -2.917969 0.574219 -2.972656 L 0.574219 -3.40625 L 2.664062 -3.40625 L 2.664062 -3.042969 L 1.746094 -0.109375 C 1.734375 -0.0625 1.714844 -0.03125 1.695312 -0.0195312 C 1.675781 -0.00390625 1.652344 0.00390625 1.628906 0.00390625 C 1.59375 0.00390625 1.566406 -0.00390625 1.546875 -0.0273438 C 1.523438 -0.0507812 1.515625 -0.0742188 1.515625 -0.101562 C 1.515625 -0.121094 1.519531 -0.148438 1.53125 -0.179688 Z "/>
</g>
</g>
</defs>
<g fill="rgb(100%, 100%, 100%)" fill-opacity="1">
<use xlink:href="#glyph-0-0" x="30" y="24.625"/>
<use xlink:href="#glyph-0-1" x="33" y="24.625"/>
<use xlink:href="#glyph-0-2" x="36" y="24.625"/>
<use xlink:href="#glyph-0-3" x="39" y="24.625"/>
<use xlink:href="#glyph-0-4" x="42" y="24.625"/>
<use xlink:href="#glyph-0-1" x="45" y="24.625"/>
</g>
</svg>
